<svg xmlns="http://www.w3.org/2000/svg" width="22.507" height="27" viewBox="0 0 22.507 27">
  <path d="M28.6,5.681c-.218.035-.45.07-.7.1a41.447,41.447,0,0,1-4.261.366,25.872,25.872,0,0,1-5.5-.858A26.931,26.931,0,0,0,12.473,4.5c-3.952,0-5.295.851-5.435.942l-.288.2V30.487a1,1,0,0,0,.865,1.005.984.984,0,0,0,1.1-.977V19.659a.571.571,0,0,1,.45-.555,17.062,17.062,0,0,1,3.3-.274c1.842,0,3.565.7,5.386,1.09a24.79,24.79,0,0,0,5.864.809,33.335,33.335,0,0,0,5.048-.464.567.567,0,0,0,.485-.555V6.237A.572.572,0,0,0,28.6,5.681Z" transform="translate(-6.75 -4.5)" fill="#4c6a28"/>
</svg>
