<svg xmlns="http://www.w3.org/2000/svg" xmlns:xlink="http://www.w3.org/1999/xlink" width="29.112" height="29.108" viewBox="0 0 29.112 29.108">
  <defs>
    <linearGradient id="linear-gradient" x1="0.5" x2="0.5" y2="1" gradientUnits="objectBoundingBox">
      <stop offset="0" stop-color="#f7df87"/>
      <stop offset="1" stop-color="#c7951c"/>
    </linearGradient>
  </defs>
  <g transform="translate(-1.444 -1.542)" fill="url(#linear-gradient)">
    <path d="M13.7,2.57a3.088,3.088,0,0,1,4.6,0l.009.01a3.088,3.088,0,0,0,3.116.919l.007,0a3.088,3.088,0,0,1,3.862,2.479l.012.075a3.088,3.088,0,0,0,2.106,2.442l.061.02a3.088,3.088,0,0,1,1.9,4.154l-.048.112a3.088,3.088,0,0,0,.454,3.173l.075.091a3.088,3.088,0,0,1-.65,4.514l-.08.055a3.088,3.088,0,0,0-1.329,2.924l.013.1a3.088,3.088,0,0,1-3,3.458h-.031a3.088,3.088,0,0,0-2.72,1.756l-.018.037a3.088,3.088,0,0,1-4.413,1.294h0a3.088,3.088,0,0,0-3.252,0h0a3.088,3.088,0,0,1-4.413-1.294l-.018-.037A3.088,3.088,0,0,0,7.223,27.1H7.192a3.088,3.088,0,0,1-3-3.458l.013-.1a3.088,3.088,0,0,0-1.329-2.924l-.08-.055a3.088,3.088,0,0,1-.65-4.514l.075-.091a3.088,3.088,0,0,0,.454-3.173l-.048-.112a3.088,3.088,0,0,1,1.9-4.154l.061-.02A3.088,3.088,0,0,0,6.694,6.051l.012-.075A3.088,3.088,0,0,1,10.568,3.5l.007,0a3.088,3.088,0,0,0,3.116-.919Z" stroke="none"/>
    <path d="M 16 2.541828155517578 C 15.39813041687012 2.541828155517578 14.84557914733887 2.788787841796875 14.44426918029785 3.237068176269531 L 14.43561935424805 3.246738433837891 C 13.66102027893066 4.111988067626953 12.55073928833008 4.60822868347168 11.38945960998535 4.60822868347168 C 11.02559089660645 4.60822868347168 10.66283988952637 4.559478759765625 10.31141090393066 4.463388442993164 L 10.30471038818359 4.4615478515625 C 10.12257957458496 4.411748886108398 9.936239242553711 4.386497497558594 9.750850677490234 4.386508941650391 C 8.724830627441406 4.38654899597168 7.859439849853516 5.123228073120117 7.693130493164062 6.138158798217773 L 7.680900573730469 6.212799072265625 C 7.431289672851562 7.736078262329102 6.36298942565918 8.974708557128906 4.893020629882812 9.445278167724609 L 4.831409454345703 9.465007781982422 C 4.264659881591797 9.646438598632812 3.816280364990234 10.04441833496094 3.568870544433594 10.58562850952148 C 3.321460723876953 11.1268482208252 3.313869476318359 11.726318359375 3.547489166259766 12.27363777160645 L 3.595209121704102 12.38542747497559 C 4.196159362792969 13.79330825805664 3.965850830078125 15.40267753601074 2.994129180908203 16.58553695678711 L 2.919010162353516 16.67696762084961 C 2.542060852050781 17.13582801818848 2.381050109863281 17.71222877502441 2.465639114379883 18.30000877380371 C 2.550230026245117 18.88778877258301 2.867250442504883 19.3953971862793 3.358259201049805 19.72930908203125 L 3.438629150390625 19.78395843505859 C 4.708370208740234 20.64743804931641 5.382659912109375 22.13083839416504 5.19835090637207 23.65535736083984 L 5.185670852661133 23.76013946533203 C 5.113990783691406 24.35301971435547 5.290019989013672 24.92796897888184 5.681320190429688 25.37909889221191 C 6.072620391845703 25.83021926879883 6.61693000793457 26.08572769165039 7.213869094848633 26.09855842590332 L 7.24485969543457 26.09921836853027 C 8.796920776367188 26.13255882263184 10.17679023742676 27.02345848083496 10.84597969055176 28.42426872253418 L 10.86364936828613 28.46124839782715 C 11.21397018432617 29.1945686340332 11.93750953674316 29.65011787414551 12.75192070007324 29.65011787414551 C 13.13723945617676 29.65011787414551 13.51605987548828 29.5416374206543 13.84741973876953 29.33641815185547 C 14.49449920654297 28.9356689453125 15.23884963989258 28.72383880615234 15.99999046325684 28.72383880615234 C 16.76113128662109 28.72383880615234 17.50547981262207 28.9356689453125 18.15256118774414 29.33642768859863 C 18.48392868041992 29.54164886474609 18.86275863647461 29.65012741088867 19.24806976318359 29.65012741088867 C 20.06248092651367 29.65012741088867 20.78602981567383 29.1945686340332 21.13634872436523 28.46125793457031 L 21.15402984619141 28.42424774169922 C 21.82320976257324 27.02345848083496 23.20307922363281 26.13255882263184 24.75523948669434 26.09921836853027 L 24.7860107421875 26.09855842590332 C 25.38306999206543 26.08572769165039 25.9273796081543 25.83021926879883 26.31867980957031 25.37908935546875 C 26.70998001098633 24.92796897888184 26.88599967956543 24.35301971435547 26.8143196105957 23.76015853881836 L 26.80163955688477 23.65527725219727 C 26.61733055114746 22.1308479309082 27.29161071777344 20.6474494934082 28.56139945983887 19.78393936157227 L 28.64170074462891 19.72932815551758 C 29.13274955749512 19.3953971862793 29.44976997375488 18.88778877258301 29.53435897827148 18.30001831054688 C 29.61894989013672 17.71223831176758 29.45793914794922 17.13582801818848 29.08102035522461 16.67700958251953 L 29.00584030151367 16.58550834655762 C 28.03414916992188 15.40267753601074 27.80384063720703 13.79330825805664 28.40476989746094 12.38546752929688 L 28.45251083374023 12.27361869812012 C 28.68613052368164 11.726318359375 28.67853927612305 11.1268482208252 28.43112945556641 10.58563804626465 C 28.18371963500977 10.04441833496094 27.7353401184082 9.646429061889648 27.16865921020508 9.465019226074219 L 27.10710906982422 9.445318222045898 C 25.63702011108398 8.974708557128906 24.5687198638916 7.736087799072266 24.31909942626953 6.212738037109375 L 24.30688095092773 6.138149261474609 C 24.14055061340332 5.12310791015625 23.27519035339355 4.386438369750977 22.2492504119873 4.386497497558594 C 22.063720703125 4.386508941650391 21.87734031677246 4.411758422851562 21.69612884521484 4.461318969726562 L 21.68873023986816 4.463348388671875 C 21.33716011047363 4.559478759765625 20.97439956665039 4.60822868347168 20.61054039001465 4.60822868347168 C 19.44927024841309 4.60822868347168 18.33897972106934 4.111988067626953 17.56389045715332 3.246189117431641 L 17.55587005615234 3.237218856811523 C 17.1544189453125 2.788787841796875 16.60186958312988 2.541828155517578 16 2.541828155517578 M 16.00000381469727 1.541826248168945 C 16.84358596801758 1.541826248168945 17.68716430664062 1.884622573852539 18.30093002319336 2.570219039916992 L 18.30944061279297 2.579738616943359 C 18.90369033813477 3.2435302734375 19.74481964111328 3.608230590820312 20.61053848266602 3.608230590820312 C 20.88189888000488 3.608230590820312 21.15558624267578 3.572422027587891 21.42496109008789 3.498758316040039 L 21.43152046203613 3.496957778930664 C 21.7052001953125 3.422119140625 21.97976684570312 3.386514663696289 22.24918365478516 3.386499404907227 C 23.72035980224609 3.38641357421875 25.04318237304688 4.447521209716797 25.29372024536133 5.976438522338867 L 25.30595016479492 6.051107406616211 C 25.49356079101562 7.196027755737305 26.30704116821289 8.13920783996582 27.41199111938477 8.492927551269531 L 27.47348022460938 8.512607574462891 C 29.20645904541016 9.067388534545898 30.08658027648926 10.99266815185547 29.37223052978516 12.66619873046875 L 29.32451057434082 12.77800750732422 C 28.87227058410645 13.83748817443848 29.04730033874512 15.06060791015625 29.77853965759277 15.95072746276855 L 29.85368919372559 16.04219818115234 C 31.00630950927734 17.44526863098145 30.70553970336914 19.53514862060547 29.20404052734375 20.55623817443848 L 29.12369918823242 20.61086845397949 C 28.16860008239746 21.26037788391113 27.65576934814453 22.38856887817383 27.79441070556641 23.53524780273438 L 27.80709075927734 23.64011764526367 C 28.02626991271973 25.45296859741211 26.63312911987305 27.05910873413086 24.8074893951416 27.09832763671875 L 24.77661895751953 27.0989875793457 C 23.61104011535645 27.12402725219727 22.55889892578125 27.80332946777344 22.05635070800781 28.85530853271484 L 22.03868103027344 28.89229774475098 C 21.50411796569824 30.01128005981445 20.39372062683105 30.65013122558594 19.24807167053223 30.65013122558594 C 18.69535636901855 30.65013122558594 18.13467597961426 30.50160026550293 17.62604141235352 30.18658828735352 C 17.12792015075684 29.87808799743652 16.56394958496094 29.72383689880371 15.9999885559082 29.72383689880371 C 15.43602561950684 29.72383689880371 14.8720703125 29.87808227539062 14.37394905090332 30.18657875061035 C 13.86540985107422 30.50153160095215 13.30453109741211 30.65012168884277 12.75191688537598 30.65012168884277 C 11.60615921020508 30.65012168884277 10.49592399597168 30.01137351989746 9.961320877075195 28.89229774475098 L 9.943649291992188 28.85530853271484 C 9.441099166870117 27.80332946777344 8.388959884643555 27.12402725219727 7.223379135131836 27.0989875793457 L 7.192499160766602 27.09832763671875 C 5.366870880126953 27.05910873413086 3.973730087280273 25.45297813415527 4.192899703979492 23.64011764526367 L 4.205589294433594 23.53523826599121 C 4.344219207763672 22.38856887817383 3.831399917602539 21.26037788391113 2.876300811767578 20.61086845397949 L 2.79595947265625 20.55623817443848 C 1.294460296630859 19.53514862060547 0.9936904907226562 17.44525909423828 2.146310806274414 16.04219818115234 L 2.221460342407227 15.95072746276855 C 2.952699661254883 15.06060791015625 3.127729415893555 13.83748817443848 2.67548942565918 12.77800750732422 L 2.627769470214844 12.66620826721191 C 1.913419723510742 10.99266815185547 2.793539047241211 9.067388534545898 4.526529312133789 8.512619018554688 L 4.588010787963867 8.492927551269531 C 5.692970275878906 8.13920783996582 6.506450653076172 7.196027755737305 6.694059371948242 6.051097869873047 L 6.706289291381836 5.976457595825195 C 6.956802368164062 4.447643280029297 8.279760360717773 3.386569976806641 9.750808715820312 3.386505126953125 C 10.02032852172852 3.386493682861328 10.29469108581543 3.422098159790039 10.56847953796387 3.496969223022461 L 10.57502937316895 3.498758316040039 C 10.84433364868164 3.572402954101562 11.11816787719727 3.608232498168945 11.38946151733398 3.608232498168945 C 12.25525665283203 3.608232498168945 13.09626197814941 3.24359130859375 13.69055938720703 2.579738616943359 L 13.69906997680664 2.570228576660156 C 14.31283569335938 1.884628295898438 15.15642166137695 1.541826248168945 16.00000381469727 1.541826248168945 Z" stroke="none" fill="rgba(151,126,55,0.33)"/>
  </g>
  <path  d="M15.067,12.784H3.2a.458.458,0,0,0-.457.457v.913a.458.458,0,0,0,.457.457H15.067a.458.458,0,0,0,.457-.457v-.913A.458.458,0,0,0,15.067,12.784Zm1.826-9.131a1.37,1.37,0,0,0-1.37,1.37,1.342,1.342,0,0,0,.126.565L13.583,6.826a.912.912,0,0,1-1.261-.331L10,2.426a1.37,1.37,0,1,0-1.729,0L5.941,6.495a.913.913,0,0,1-1.261.331L2.617,5.587a1.369,1.369,0,1,0-1.247.8,1.4,1.4,0,0,0,.22-.023l2.063,5.5H14.61l2.063-5.5a1.4,1.4,0,0,0,.22.023,1.37,1.37,0,1,0,0-2.739Z" transform="translate(5.256 6.568)" opacity="0.217"/>
</svg>
