<svg xmlns="http://www.w3.org/2000/svg" width="33" height="32" viewBox="0 0 33 32">
  <g  opacity="0.6">
    <path d="M 24.11643981933594 29.91025924682617 C 23.87861061096191 29.91026878356934 23.64592933654785 29.85207748413086 23.42487907409668 29.7372989654541 L 17.65205955505371 26.73979759216309 C 17.29767990112305 26.5557975769043 16.89929962158203 26.45853805541992 16.5 26.45853805541992 C 16.10070037841797 26.45853805541992 15.70232009887695 26.5557975769043 15.34794044494629 26.73979759216309 L 9.575119972229004 29.7372989654541 C 9.354100227355957 29.8520679473877 9.121410369873047 29.91025924682617 8.883529663085938 29.91025924682617 C 8.452790260314941 29.91025924682617 8.024350166320801 29.71034812927246 7.737450122833252 29.37551879882812 C 7.452489852905273 29.04294776916504 7.333230018615723 28.61698913574219 7.401619911193848 28.17611885070801 L 8.430660247802734 21.54261779785156 C 8.550959587097168 20.76713752746582 8.2947998046875 19.96960830688477 7.745419979095459 19.40922927856445 L 3.060830116271973 14.63081836700439 C 2.660860061645508 14.22283840179443 2.528559923171997 13.65522861480713 2.70691990852356 13.11244869232178 C 2.885279893875122 12.56966876983643 3.328490018844604 12.19116878509521 3.892499923706055 12.0999584197998 L 10.37090969085693 11.05234813690186 C 11.16254997253418 10.92432880401611 11.84928035736084 10.41968822479248 12.20790004730225 9.702418327331543 L 15.15835952758789 3.801398277282715 C 15.41796016693115 3.282188415527344 15.91950035095215 2.972208261489868 16.5 2.972208261489868 C 17.08049964904785 2.972208261489868 17.58204078674316 3.282188415527344 17.84164047241211 3.801398277282715 L 20.79210090637207 9.702418327331543 C 21.15072059631348 10.41968822479248 21.83745002746582 10.92432880401611 22.62908935546875 11.05234813690186 L 29.10750007629395 12.0999584197998 C 29.67151069641113 12.19116878509521 30.11471939086914 12.56965827941895 30.2930793762207 13.1124382019043 C 30.47145080566406 13.65521812438965 30.33914947509766 14.22283840179443 29.93918037414551 14.63081836700439 L 25.25458908081055 19.40922927856445 C 24.7052001953125 19.96961784362793 24.44903945922852 20.76714897155762 24.56933975219727 21.54261779785156 L 25.59839057922363 28.17611885070801 C 25.66677093505859 28.61690902709961 25.54750061035156 29.04281806945801 25.26255989074707 29.37538909912109 C 24.97562980651855 29.71027755737305 24.54718017578125 29.91022872924805 24.11643981933594 29.91025924682617 Z" stroke="none"/>
    <path d="M 16.5 3.472208023071289 C 16.11300086975098 3.472208023071289 15.77864074707031 3.678857803344727 15.60556983947754 4.025009155273438 L 12.65510940551758 9.926017761230469 C 12.22476959228516 10.7867374420166 11.40069961547852 11.39231872558594 10.45071983337402 11.54593849182129 L 3.972320556640625 12.59354782104492 C 3.596309661865234 12.65434837341309 3.300840377807617 12.90668869018555 3.181930541992188 13.2685375213623 C 3.063020706176758 13.6303882598877 3.151220321655273 14.00880813598633 3.41786003112793 14.28078842163086 L 8.102470397949219 19.05920791625977 C 8.761720657348633 19.7316780090332 9.069110870361328 20.6887092590332 8.924749374389648 21.61925888061523 L 7.895709991455078 28.25275802612305 C 7.837200164794922 28.62995910644531 7.983829498291016 28.89460754394531 8.11713981628418 29.0501880645752 C 8.310319900512695 29.27565765380859 8.596820831298828 29.41025924682617 8.883529663085938 29.41025924682617 C 9.040409088134766 29.41025924682617 9.19556999206543 29.3709888458252 9.344709396362305 29.29355812072754 L 15.11751937866211 26.29605865478516 C 15.54277992248535 26.07524871826172 16.02083969116211 25.95852851867676 16.5 25.95852851867676 C 16.97915077209473 25.95852851867676 17.45719909667969 26.07523727416992 17.88246917724609 26.29605865478516 L 23.65528869628906 29.29355812072754 C 23.80443000793457 29.37099838256836 23.95959091186523 29.41025924682617 24.11647987365723 29.41025924682617 C 24.40312957763672 29.41025924682617 24.68962097167969 29.27563858032227 24.8828296661377 29.05014801025391 C 25.01614952087402 28.8945484161377 25.16279983520508 28.62989807128906 25.10429954528809 28.25276947021484 L 24.07524871826172 21.6192684173584 C 23.93088912963867 20.68868827819824 24.23828887939453 19.73164749145508 24.89754867553711 19.0591983795166 L 29.58213043212891 14.28078842163086 C 29.84877967834473 14.00879859924316 29.93697929382324 13.6303882598877 29.81806945800781 13.2685375213623 C 29.69915962219238 12.90667915344238 29.40369033813477 12.65434837341309 29.02769088745117 12.59354782104492 L 22.54928016662598 11.54593849182129 C 21.59930038452148 11.39231872558594 20.77523040771484 10.7867374420166 20.34489059448242 9.926029205322266 L 17.39443016052246 4.024997711181641 C 17.22135925292969 3.678857803344727 16.88699913024902 3.472208023071289 16.5 3.472208023071289 M 16.5 2.472208023071289 C 17.21017074584961 2.472208023071289 17.92033958435059 2.840738296508789 18.28886032104492 3.577798843383789 L 21.23931884765625 9.478818893432617 C 21.52700042724609 10.05419921875 22.0738697052002 10.45606803894043 22.70890998840332 10.55875778198242 L 29.18732070922852 11.60636901855469 C 30.78861999511719 11.86531829833984 31.4317798614502 13.82253837585449 30.29620933532715 14.98084831237793 L 25.61162948608398 19.75925827026367 C 25.16988945007324 20.2098388671875 24.96669960021973 20.84243774414062 25.06343078613281 21.46596908569336 L 26.09247970581055 28.09946823120117 C 26.29118919372559 29.38044738769531 25.27119636535645 30.41025543212891 24.11647415161133 30.41025543212891 C 23.81185150146484 30.41025543212891 23.49796676635742 30.33863639831543 23.1944694519043 30.18104934692383 L 17.42164993286133 27.18354797363281 C 17.13274383544922 27.03353881835938 16.81637191772461 26.95853424072266 16.5 26.95853424072266 C 16.18362808227539 26.95853424072266 15.86725425720215 27.03353881835938 15.57835006713867 27.18354797363281 L 9.805530548095703 30.18104934692383 C 9.502120971679688 30.33859062194824 9.188066482543945 30.41025543212891 8.883525848388672 30.41025543212891 C 7.728694915771484 30.41025543212891 6.708797454833984 29.38054466247559 6.907529830932617 28.09946823120117 L 7.936569213867188 21.46596908569336 C 8.033300399780273 20.84243774414062 7.830099105834961 20.2098388671875 7.38838005065918 19.75925827026367 L 2.703779220581055 14.98084831237793 C 1.568220138549805 13.82253837585449 2.211389541625977 11.86531829833984 3.812679290771484 11.60636901855469 L 10.29109001159668 10.55875778198242 C 10.92612075805664 10.45606803894043 11.47299957275391 10.05419921875 11.76067924499512 9.478818893432617 L 14.71113967895508 3.577798843383789 C 15.07966041564941 2.840738296508789 15.78982925415039 2.472208023071289 16.5 2.472208023071289 Z" stroke="none" fill="#fcfcfc"/>
  </g>
</svg>
