<svg xmlns="http://www.w3.org/2000/svg" width="278.781" height="58.204" viewBox="0 0 278.781 58.204">
  <g  transform="translate(-85.575 -328.575)">
    <g transform="translate(85.575 328.575)">
      <path d="M29.1,0A29.183,29.183,0,1,0,49.656,8.547,29.165,29.165,0,0,0,29.1,0Zm0,54.793A25.727,25.727,0,0,1,5.717,39.737l8.651-9.316,3.3,3.3a1.705,1.705,0,0,0,2.411,0l3.91-3.91,3.91,3.91a1.705,1.705,0,0,0,2.411,0l3.91-3.91,3.91,3.91a1.705,1.705,0,0,0,2.411,0l3.329-3.329,8.651,9.279A25.728,25.728,0,0,1,29.1,54.793ZM16.69,27.92,29.1,14.553l12.437,13.34L39.333,30.1l-3.91-3.91a1.705,1.705,0,0,0-2.411,0L29.1,30.1l-3.91-3.91a1.705,1.705,0,0,0-2.411,0l-3.91,3.91Zm37.141,8.154L30.349,10.887a1.705,1.705,0,0,0-1.247-.542h0a1.705,1.705,0,0,0-1.248.545L4.393,36.15a25.692,25.692,0,1,1,49.438-.076Z" transform="translate(0 0)" fill="#4c6a28"/>
    </g>
    <path d="M-99.576,0l-4.5-17.064h4.86l2.592,11.088,2.844-8.892v-2.2h3.708l3.24,11.088,2.52-11.088h4.824L-83.952,0h-4.464l-3.276-9.972L-95.04,0Zm29.2.36a7.55,7.55,0,0,1-3.006-.594A5.241,5.241,0,0,1-75.618-2a4.878,4.878,0,0,1-.846-2.934,5.021,5.021,0,0,1,1.782-4.032,7.968,7.968,0,0,1,5.274-1.512h5.04v-.468a2.591,2.591,0,0,0-.882-2.232,6.566,6.566,0,0,0-3.546-.648,17.642,17.642,0,0,0-5.616.9v-3.42a15.393,15.393,0,0,1,2.9-.774,21.187,21.187,0,0,1,3.726-.306,9.833,9.833,0,0,1,5.958,1.566q2.106,1.566,2.106,5.022V0h-4.212l-.252-1.548a7.142,7.142,0,0,1-2.484,1.4A11.625,11.625,0,0,1-70.38.36Zm1.332-3.2a6.737,6.737,0,0,0,2.808-.54,5.126,5.126,0,0,0,1.872-1.368v-2.7H-69.3q-2.844,0-2.844,2.34Q-72.144-2.844-69.048-2.844ZM-53.82,0V-17.064h4.5l.18,1.62a10.28,10.28,0,0,1,2.646-1.386,9.6,9.6,0,0,1,3.366-.594q3.384,0,4.932,1.584a6.771,6.771,0,0,1,1.548,4.9V0h-4.86V-10.692a3.45,3.45,0,0,0-.7-2.448,3.631,3.631,0,0,0-2.61-.72,5.506,5.506,0,0,0-2.25.5,6.2,6.2,0,0,0-1.89,1.26V0Zm29.664.36a9.685,9.685,0,0,1-4.05-.81A5.928,5.928,0,0,1-31-3.114,10.29,10.29,0,0,1-32-8.028a10.815,10.815,0,0,1,1.116-5.148A7.788,7.788,0,0,1-27.9-16.344a8.068,8.068,0,0,1,4.1-1.08,8.55,8.55,0,0,1,4.788,1.3v-8.136h4.86V0h-4.176l-.288-1.584a7.806,7.806,0,0,1-2.43,1.458A8.98,8.98,0,0,1-24.156.36ZM-22.824-3.2a5.185,5.185,0,0,0,3.816-1.548v-7.776a5.171,5.171,0,0,0-3.528-1.332q-4.536,0-4.536,5.832,0,2.736,1.116,3.78A4.409,4.409,0,0,0-22.824-3.2ZM.468.36a10.452,10.452,0,0,1-7.02-2.214Q-9.144-4.068-9.144-8.568A9.237,9.237,0,0,1-6.966-15.03q2.178-2.394,6.5-2.394A8.3,8.3,0,0,1,5.6-15.354,7.259,7.259,0,0,1,7.7-9.936v3.1H-4.644a3.694,3.694,0,0,0,1.89,2.808,9.56,9.56,0,0,0,4.23.756,15.97,15.97,0,0,0,2.79-.252A12.829,12.829,0,0,0,6.7-4.176V-.72A11.279,11.279,0,0,1,3.924.09,20.61,20.61,0,0,1,.468.36ZM-4.644-9.828h8.1v-.936a3.1,3.1,0,0,0-.864-2.322,4.091,4.091,0,0,0-2.916-.846,4.642,4.642,0,0,0-3.366.972A4.347,4.347,0,0,0-4.644-9.828ZM13.068,0V-17.064h4.5l.216,1.764a14.246,14.246,0,0,1,2.862-1.314,16.925,16.925,0,0,1,3.366-.81v3.672q-.972.144-2.124.432t-2.2.648a11.416,11.416,0,0,0-1.764.756V0ZM35.676,6.336a31.2,31.2,0,0,1-3.906-.252,17.2,17.2,0,0,1-3.366-.72V1.728a19.891,19.891,0,0,0,3.384.738,26.518,26.518,0,0,0,3.636.27,16.98,16.98,0,0,0,3.6-.27q1.116-.27,1.116-.954A.791.791,0,0,0,39.654.72,6.037,6.037,0,0,0,37.62.5H32.976Q28.4.5,28.4-2.88a3.367,3.367,0,0,1,.576-1.908,3.827,3.827,0,0,1,1.836-1.368A5.133,5.133,0,0,1,27.9-11.124a5.543,5.543,0,0,1,2.052-4.806Q32-17.424,36.036-17.424a14.485,14.485,0,0,1,1.818.126q.99.126,1.494.234h6.408L45.648-14h-2.7a3.8,3.8,0,0,1,1.116,2.916,5.5,5.5,0,0,1-1.656,4.194,6.877,6.877,0,0,1-4.9,1.566,10.68,10.68,0,0,1-1.1-.054q-.522-.054-1.062-.126a5.948,5.948,0,0,0-1.818.5,1.09,1.09,0,0,0-.738.972q0,.828,1.476.828H39.1a6.08,6.08,0,0,1,4,1.17,4.177,4.177,0,0,1,1.4,3.4,4,4,0,0,1-2.268,3.744A14.076,14.076,0,0,1,35.676,6.336Zm.4-14.4A4.641,4.641,0,0,0,39.078-8.8a3.178,3.178,0,0,0,.846-2.5,3.363,3.363,0,0,0-.846-2.556,4.406,4.406,0,0,0-3.006-.792,4.509,4.509,0,0,0-2.952.774,3.234,3.234,0,0,0-.9,2.574,3.2,3.2,0,0,0,.846,2.448A4.406,4.406,0,0,0,36.072-8.064ZM58.86.36q-4.788,0-7.02-2.322a9.1,9.1,0,0,1-2.232-6.57,9.054,9.054,0,0,1,2.25-6.57q2.25-2.322,7-2.322,4.788,0,7.038,2.322a9.054,9.054,0,0,1,2.25,6.57,9.1,9.1,0,0,1-2.232,6.57Q63.684.36,58.86.36Zm0-4.14a4.463,4.463,0,0,0,3.348-1.062,5.325,5.325,0,0,0,1.008-3.69,5.325,5.325,0,0,0-1.008-3.69,4.463,4.463,0,0,0-3.348-1.062,4.407,4.407,0,0,0-3.312,1.062,5.325,5.325,0,0,0-1.008,3.69,5.325,5.325,0,0,0,1.008,3.69A4.407,4.407,0,0,0,58.86-3.78ZM78.264.36A4.9,4.9,0,0,1,74.646-.792a5.078,5.078,0,0,1-1.134-3.672v-19.8h4.86v19.4a1.687,1.687,0,0,0,.36,1.242,1.459,1.459,0,0,0,1.044.342,5.331,5.331,0,0,0,1.692-.252V-.18A8.7,8.7,0,0,1,78.264.36Zm15.084,0A9.685,9.685,0,0,1,89.3-.45a5.929,5.929,0,0,1-2.79-2.664A10.29,10.29,0,0,1,85.5-8.028a10.815,10.815,0,0,1,1.116-5.148A7.788,7.788,0,0,1,89.6-16.344a8.068,8.068,0,0,1,4.1-1.08,8.55,8.55,0,0,1,4.788,1.3v-8.136h4.86V0H99.18l-.288-1.584a7.806,7.806,0,0,1-2.43,1.458A8.98,8.98,0,0,1,93.348.36ZM94.68-3.2A5.185,5.185,0,0,0,98.5-4.752v-7.776a5.171,5.171,0,0,0-3.528-1.332q-4.536,0-4.536,5.832,0,2.736,1.116,3.78A4.409,4.409,0,0,0,94.68-3.2Z" transform="translate(261 369)" fill="#4c6a28"/>
  </g>
</svg>
