<svg xmlns="http://www.w3.org/2000/svg" width="58.204" height="58.204" viewBox="0 0 58.204 58.204">
  <path  d="M29.1,0A29.183,29.183,0,1,0,49.656,8.547,29.165,29.165,0,0,0,29.1,0Zm0,54.793A25.727,25.727,0,0,1,5.717,39.737l8.651-9.316,3.3,3.3a1.705,1.705,0,0,0,2.411,0l3.91-3.91,3.91,3.91a1.705,1.705,0,0,0,2.411,0l3.91-3.91,3.91,3.91a1.705,1.705,0,0,0,2.411,0l3.329-3.329,8.651,9.279A25.728,25.728,0,0,1,29.1,54.793ZM16.69,27.92,29.1,14.553l12.437,13.34L39.333,30.1l-3.91-3.91a1.705,1.705,0,0,0-2.411,0L29.1,30.1l-3.91-3.91a1.705,1.705,0,0,0-2.411,0l-3.91,3.91Zm37.141,8.154L30.349,10.887a1.705,1.705,0,0,0-1.247-.542h0a1.705,1.705,0,0,0-1.248.545L4.393,36.15a25.692,25.692,0,1,1,49.438-.076Z" transform="translate(0 0)" fill="#4c6a28"/>
</svg>
