<svg xmlns="http://www.w3.org/2000/svg" width="23.151" height="23.151" viewBox="0 0 23.151 23.151">
  <path d="M13.076,8.866a4.209,4.209,0,1,0,4.209,4.209A4.208,4.208,0,0,0,13.076,8.866Zm9.408,3.157a9.465,9.465,0,0,0-8.356-8.356V1.5h-2.1V3.668a9.465,9.465,0,0,0-8.356,8.356H1.5v2.1H3.668a9.465,9.465,0,0,0,8.356,8.356v2.168h2.1V22.484a9.465,9.465,0,0,0,8.356-8.356h2.168v-2.1Zm-9.408,8.419a7.366,7.366,0,1,1,7.366-7.366A7.361,7.361,0,0,1,13.076,20.442Z" transform="translate(-1.5 -1.5)" fill="#33392c"/>
</svg>
